<svg width="110" height="110" viewBox="0 0 110 110" fill="none" xmlns="http://www.w3.org/2000/svg">
<rect x="5.5" y="5.5" width="99" height="99" rx="20" fill="#0AC775"/>
<path fill-rule="evenodd" clip-rule="evenodd" d="M40.15 26C40.15 23.7909 41.9409 22 44.15 22H65.85C68.0592 22 69.85 23.7909 69.85 26V35.5384L61.6004 35.5384V30.4615H48.4004V59.2307H61.6004V53.6258C62.137 53.9605 62.7709 54.1538 63.4499 54.1538H67.9999C68.6792 54.1538 69.3133 53.9603 69.85 53.6254V63.6923C69.85 65.9014 68.0592 67.6923 65.85 67.6923H44.15C41.9409 67.6923 40.15 65.9015 40.15 63.6923V26Z" fill="white"/>
<path fill-rule="evenodd" clip-rule="evenodd" d="M40.1499 46.3076C40.1499 44.0985 41.9408 42.3076 44.1499 42.3076H65.8499C68.059 42.3076 69.8499 44.0985 69.8499 46.3076V83.9999C69.8499 86.2091 68.059 87.9999 65.8499 87.9999H44.1499C41.9408 87.9999 40.1499 86.2091 40.1499 83.9999V74.4617H48.3996V79.5384H61.5996V50.7692H48.3996V54.6822C47.8629 54.3474 47.2289 54.154 46.5498 54.154H41.9998C41.3206 54.154 40.6866 54.3474 40.1499 54.6822V46.3076Z" fill="white"/>
<path fill-rule="evenodd" clip-rule="evenodd" d="M31 27.0767H35.1999V33.9375C32.3869 34.434 30.25 36.8904 30.25 39.8459V70.1536C30.25 73.109 32.3869 75.5654 35.1999 76.062V82.9228H31C26.0294 82.9228 22 78.8934 22 73.9228V36.0767C22 31.1061 26.0294 27.0767 31 27.0767ZM74.7999 82.9228H79C83.9706 82.9228 88 78.8934 88 73.9228V36.0767C88 31.1061 83.9706 27.0767 79 27.0767H74.7999V33.9374C77.613 34.4339 79.75 36.8903 79.75 39.8459V70.1536C79.75 73.1091 77.613 75.5655 74.7999 76.062V82.9228Z" fill="white"/>
<rect opacity="0.2" x="0.5" y="0.5" width="109" height="109" rx="19.5" stroke="#5C6F87"/>
</svg>
